<svg id="Layer_1" data-name="Layer 1" xmlns="http://www.w3.org/2000/svg" viewBox="0 0 2166 694"><defs><style>.cls-1{fill:#4d4d4d;}.cls-2{fill:#8c8c8c;}.cls-3{fill:#1a1a1a;}</style></defs><title>EGW-Logo-Gray</title><path class="cls-1" d="M1704.6,142l289-126.14a118.36,118.36,0,0,1-61.13,155.81h0L1643.46,297.83A118.36,118.36,0,0,1,1704.6,142Z"/><path class="cls-2" d="M1886.93,342.87,1597.88,469A118.36,118.36,0,0,1,1659,313.19h0l289-126.14A118.36,118.36,0,0,1,1886.93,342.87Z"/><path class="cls-3" d="M1995.12,315.16l-289,126.13a118.35,118.35,0,0,0,155.81,61.14h0l289-126.14A118.35,118.35,0,0,0,1995.12,315.16Z"/><path class="cls-3" d="M902.86,553.21l22.8-.18,23.94,97.85H950L975,552.63l23-.18,25.92,97.84h.36l23.1-98.23,22.8-.18-34.35,128.48-22.8.18L986.6,582.71h-.36L960.81,681l-23.16.18Z"/><path class="cls-3" d="M1084.93,551.76l92.29-.74.16,19.39-69.85.56.27,33.58,64.64-.52.15,18.31-64.64.52.3,37.53,71.1-.57.16,19.39L1086,680Z"/><path class="cls-3" d="M1198,550.85l22.44-.18.87,108.81,65.18-.52.16,19.39-87.62.7Z"/><path class="cls-3" d="M1301.11,550l22.44-.18.87,108.81,65.18-.52.16,19.39-87.62.7Z"/><path class="cls-3" d="M1403.28,549.22,1427,549l59.29,94h.36l-.75-94.45,21.37-.17,1,128.2-23.7.19L1425.46,583h-.54l.75,94.27-21.37.17Z"/><path class="cls-3" d="M1533.81,548.18l92.29-.74.16,19.39-69.85.56.27,33.58,64.64-.52.15,18.31-64.64.52.3,37.53,71.1-.57.16,19.39-93.55.75Z"/><path class="cls-3" d="M1662.33,632.63a28.67,28.67,0,0,0,2.61,12.55,22.65,22.65,0,0,0,7.07,8.47,29.78,29.78,0,0,0,10.36,4.77,49.83,49.83,0,0,0,12.67,1.43,40.62,40.62,0,0,0,12.56-1.81,25.42,25.42,0,0,0,8.4-4.47,15.91,15.91,0,0,0,4.62-6.23,18.58,18.58,0,0,0,1.38-7.1q-.06-7.36-3.41-10.84a19,19,0,0,0-7.31-4.88,153.11,153.11,0,0,0-15.93-4.63q-9.09-2.17-22.4-5.66a47.93,47.93,0,0,1-13.78-5.55,32.7,32.7,0,0,1-8.77-7.74,27.37,27.37,0,0,1-4.65-9.12,36.66,36.66,0,0,1-1.43-9.87,33.37,33.37,0,0,1,3.9-16.82,36,36,0,0,1,10.59-11.85,47,47,0,0,1,15-7,66.12,66.12,0,0,1,17-2.38,67.18,67.18,0,0,1,19,2.45,46.75,46.75,0,0,1,15.68,7.69,37.06,37.06,0,0,1,14.88,30.41l-22.44.18q-1-12.38-8.58-17.44t-19.25-5a42,42,0,0,0-8.07.87,25.66,25.66,0,0,0-7.52,2.75,16.53,16.53,0,0,0-5.61,5.16,13.81,13.81,0,0,0-2.18,8.1q.05,6.83,4.3,10.65a27.27,27.27,0,0,0,11.09,5.75l5.67,1.48q4.95,1.31,11.07,2.87l12,3q5.84,1.48,8.37,2.18a37.54,37.54,0,0,1,11,5.3,34.6,34.6,0,0,1,7.87,7.75,32.36,32.36,0,0,1,4.74,9.39,34.5,34.5,0,0,1,1.61,10q.09,10.77-4.25,18.44a37.36,37.36,0,0,1-11.48,12.57,50.34,50.34,0,0,1-16.28,7.22,78.25,78.25,0,0,1-18.66,2.39,76.83,76.83,0,0,1-20.67-2.53,48.3,48.3,0,0,1-16.94-8.12,40.36,40.36,0,0,1-11.6-14.18q-4.38-8.67-4.65-20.52Z"/><path class="cls-3" d="M1778.69,631.7a28.67,28.67,0,0,0,2.61,12.55,22.65,22.65,0,0,0,7.07,8.47,29.78,29.78,0,0,0,10.36,4.77,49.85,49.85,0,0,0,12.67,1.43A40.62,40.62,0,0,0,1824,657.1a25.42,25.42,0,0,0,8.4-4.47,15.92,15.92,0,0,0,4.62-6.23,18.55,18.55,0,0,0,1.38-7.1q-.06-7.36-3.41-10.84a19,19,0,0,0-7.31-4.88,153.11,153.11,0,0,0-15.93-4.63q-9.09-2.17-22.4-5.66a47.93,47.93,0,0,1-13.78-5.55,32.7,32.7,0,0,1-8.77-7.74,27.4,27.4,0,0,1-4.65-9.12,36.66,36.66,0,0,1-1.43-9.87,33.36,33.36,0,0,1,3.91-16.82,36,36,0,0,1,10.59-11.85,47,47,0,0,1,15-7,66.12,66.12,0,0,1,17-2.38,67.18,67.18,0,0,1,19,2.45,46.75,46.75,0,0,1,15.68,7.69,37.06,37.06,0,0,1,14.88,30.41l-22.44.18q-1-12.38-8.58-17.44t-19.25-5a42,42,0,0,0-8.07.87,25.66,25.66,0,0,0-7.52,2.75,16.53,16.53,0,0,0-5.61,5.16,13.81,13.81,0,0,0-2.18,8.1q.05,6.83,4.3,10.65a27.27,27.27,0,0,0,11.09,5.75l5.67,1.48q4.95,1.31,11.07,2.87l12,3q5.84,1.48,8.37,2.18a37.54,37.54,0,0,1,11,5.3,34.6,34.6,0,0,1,7.87,7.75,32.36,32.36,0,0,1,4.74,9.39,34.5,34.5,0,0,1,1.61,10q.09,10.77-4.25,18.44a37.36,37.36,0,0,1-11.48,12.57,50.35,50.35,0,0,1-16.28,7.22,78.25,78.25,0,0,1-18.66,2.39,76.83,76.83,0,0,1-20.67-2.53,48.3,48.3,0,0,1-16.94-8.12,40.37,40.37,0,0,1-11.61-14.18q-4.38-8.67-4.65-20.52Z"/><path class="cls-3" d="M188.12,261.9v28.35h-141v80.44H178.55V399H47.08v87.53h142.1v28.35H13.42v-253Z"/><path class="cls-3" d="M275.29,514.92l-68-183.21h33.66L292.3,484.44H293l50-152.73h31.54l-67,183.21Z"/><path class="cls-3" d="M531.85,503.22q-20.56,15.6-51.74,15.59-22,0-38.09-7.09a75,75,0,0,1-27.11-19.84,84.21,84.21,0,0,1-16.48-30.48,146.59,146.59,0,0,1-6.2-38.63,110.27,110.27,0,0,1,6.38-38.27,91.47,91.47,0,0,1,17.9-30.12,81.19,81.19,0,0,1,27.29-19.84,83.32,83.32,0,0,1,34.55-7.09q24.45,0,40.58,10.1a80.32,80.32,0,0,1,25.87,25.69,101.69,101.69,0,0,1,13.47,34,146,146,0,0,1,3,35.08H424.12A72.68,72.68,0,0,0,427,455.2a51.66,51.66,0,0,0,10.28,19.14,50.65,50.65,0,0,0,18.07,13.29q11,5,25.87,5,19.14,0,31.36-8.86t16.12-26.93h29.77Q552.4,487.63,531.85,503.22Zm-7.27-117.65a51.64,51.64,0,0,0-11-16.48,52.23,52.23,0,0,0-16.3-11A51.6,51.6,0,0,0,476.57,354a52.5,52.5,0,0,0-21.08,4.08,48.69,48.69,0,0,0-16.12,11.16,53.43,53.43,0,0,0-10.63,16.48,62.6,62.6,0,0,0-4.61,20H529.37A61.78,61.78,0,0,0,524.59,385.57Z"/><path class="cls-3" d="M619.73,331.71v38.63h.71q11-22.32,26.93-33t40.4-9.92v31.89q-18.07,0-30.83,5a48.61,48.61,0,0,0-20.55,14.53A60.07,60.07,0,0,0,625,402a125.19,125.19,0,0,0-3.54,31.36v81.5H591.38V331.71Z"/><path class="cls-3" d="M838,566.65Q817.46,589,773.52,589a124.78,124.78,0,0,1-26-2.83,79.87,79.87,0,0,1-24.1-9.21,56.09,56.09,0,0,1-17.89-16.66q-7.09-10.28-7.8-25.16h30.12a22.27,22.27,0,0,0,5.14,13.82,37.57,37.57,0,0,0,11.69,9.21,56.76,56.76,0,0,0,15.06,5.14,81.24,81.24,0,0,0,15.59,1.59q14.88,0,25.16-5.14a47.28,47.28,0,0,0,17-14.17,58.6,58.6,0,0,0,9.75-21.79,122.07,122.07,0,0,0,3-28v-12h-.71q-7.8,17-23.57,25a73.23,73.23,0,0,1-33.49,8q-20.56,0-35.79-7.44a74.84,74.84,0,0,1-25.52-20,85.09,85.09,0,0,1-15.41-29.41,121.23,121.23,0,0,1-5.14-35.61,139.21,139.21,0,0,1,4.25-33.49A91.34,91.34,0,0,1,709,359.53a77.66,77.66,0,0,1,26.22-23q16.3-9,40-9a67.66,67.66,0,0,1,31.89,7.62,53.69,53.69,0,0,1,22.68,22.86h.36V331.71h28.35V499.32Q858.57,544.32,838,566.65Zm-38.45-82.39A49.42,49.42,0,0,0,816.4,468a74.55,74.55,0,0,0,9.39-22.86,110.89,110.89,0,0,0,3-25.51A100.5,100.5,0,0,0,826,395.85a66.42,66.42,0,0,0-9-21.08,47,47,0,0,0-16.12-15.06q-9.92-5.66-24.1-5.67-14.53,0-24.8,5.49a48.24,48.24,0,0,0-16.83,14.71,62.28,62.28,0,0,0-9.57,21.26,103.34,103.34,0,0,0-3,25.16A126,126,0,0,0,725,445.46a70.35,70.35,0,0,0,8.5,22.5,47.8,47.8,0,0,0,15.95,16.3q9.92,6.2,24.81,6.2T799.57,484.26Z"/><path class="cls-3" d="M931.21,331.71v38.63h.71q11-22.32,26.93-33t40.4-9.92v31.89q-18.07,0-30.83,5a48.61,48.61,0,0,0-20.55,14.53A60.07,60.07,0,0,0,936.53,402,125.19,125.19,0,0,0,933,433.41v81.5H902.86V331.71Z"/><path class="cls-3" d="M1145.25,503.22q-20.56,15.6-51.74,15.59-22,0-38.09-7.09a75,75,0,0,1-27.11-19.84,84.21,84.21,0,0,1-16.48-30.48,146.59,146.59,0,0,1-6.2-38.63,110.27,110.27,0,0,1,6.38-38.27,91.47,91.47,0,0,1,17.9-30.12,81.19,81.19,0,0,1,27.29-19.84,83.32,83.32,0,0,1,34.55-7.09q24.45,0,40.58,10.1a80.32,80.32,0,0,1,25.87,25.69,101.69,101.69,0,0,1,13.47,34,146,146,0,0,1,3,35.08H1037.52a72.68,72.68,0,0,0,2.84,22.86,51.66,51.66,0,0,0,10.28,19.14,50.65,50.65,0,0,0,18.07,13.29q11,5,25.87,5,19.14,0,31.36-8.86t16.12-26.93h29.77Q1165.8,487.63,1145.25,503.22ZM1138,385.57a51.64,51.64,0,0,0-11-16.48,52.23,52.23,0,0,0-16.3-11A51.6,51.6,0,0,0,1090,354a52.5,52.5,0,0,0-21.08,4.08,48.69,48.69,0,0,0-16.12,11.16,53.43,53.43,0,0,0-10.63,16.48,62.6,62.6,0,0,0-4.61,20h105.25A61.78,61.78,0,0,0,1138,385.57Z"/><path class="cls-3" d="M1335.54,503.22q-20.56,15.6-51.74,15.59-22,0-38.09-7.09a75,75,0,0,1-27.11-19.84,84.21,84.21,0,0,1-16.48-30.48,146.59,146.59,0,0,1-6.2-38.63,110.27,110.27,0,0,1,6.38-38.27,91.47,91.47,0,0,1,17.9-30.12,81.19,81.19,0,0,1,27.29-19.84,83.32,83.32,0,0,1,34.55-7.09q24.45,0,40.58,10.1a80.32,80.32,0,0,1,25.87,25.69,101.69,101.69,0,0,1,13.47,34,146,146,0,0,1,3,35.08H1227.81a72.68,72.68,0,0,0,2.84,22.86,51.66,51.66,0,0,0,10.28,19.14A50.65,50.65,0,0,0,1259,487.63q11,5,25.87,5,19.14,0,31.36-8.86t16.12-26.93h29.77Q1356.09,487.63,1335.54,503.22Zm-7.27-117.65a51.64,51.64,0,0,0-11-16.48,52.23,52.23,0,0,0-16.3-11,51.6,51.6,0,0,0-20.73-4.08,52.5,52.5,0,0,0-21.08,4.08,48.69,48.69,0,0,0-16.12,11.16,53.43,53.43,0,0,0-10.63,16.48,62.6,62.6,0,0,0-4.61,20h105.25A61.78,61.78,0,0,0,1328.28,385.57Z"/><path class="cls-3" d="M1424.48,331.71v29.06h.71q18.78-33.31,59.53-33.31,18.07,0,30.12,5a49.62,49.62,0,0,1,19.49,13.82,51.38,51.38,0,0,1,10.45,21.08,113.61,113.61,0,0,1,3,27.11V514.92h-30.12v-124q0-17-9.92-26.93T1480.47,354q-13.82,0-23.92,4.25a44.86,44.86,0,0,0-16.83,12,51.91,51.91,0,0,0-10.1,18.25,74.1,74.1,0,0,0-3.37,22.86V514.92h-30.12V331.71Z"/><path class="cls-3" d="M1870.45,555.67a18,18,0,0,1,4.23-5.89,19.05,19.05,0,0,1,6.14-3.76,20.68,20.68,0,0,1,14.58,0,19.07,19.07,0,0,1,6.14,3.76,18,18,0,0,1,4.23,5.89,18.51,18.51,0,0,1-10.37,25.16,21.06,21.06,0,0,1-14.58,0,18.48,18.48,0,0,1-6.14-3.76,18.29,18.29,0,0,1-4.23-5.91,19.78,19.78,0,0,1,0-15.49Zm4.64,13.63a14.63,14.63,0,0,0,3,4.69,13.51,13.51,0,0,0,4.48,3.08,14.33,14.33,0,0,0,11,0,13.53,13.53,0,0,0,4.49-3.08,15,15,0,0,0,3-4.69,15.22,15.22,0,0,0,1.13-5.91,15,15,0,0,0-1.13-5.89,14.78,14.78,0,0,0-3-4.64,13.88,13.88,0,0,0-10-4.16,14,14,0,0,0-5.54,1.1,13.71,13.71,0,0,0-4.48,3.06,14.42,14.42,0,0,0-3,4.64,15.34,15.34,0,0,0-1.1,5.89A15.52,15.52,0,0,0,1875.08,569.3Zm13.48-16.44a11.06,11.06,0,0,1,6.09,1.4q2.13,1.4,2.13,4.81a6.47,6.47,0,0,1-.43,2.48,4.41,4.41,0,0,1-1.18,1.68,5.32,5.32,0,0,1-1.75,1,8.79,8.79,0,0,1-2.16.45l5.61,9.17h-4.36l-5.11-9h-2.61v9h-4.16v-21Zm-.05,8.77a7.47,7.47,0,0,0,3-.5q1.15-.5,1.15-2.41a2.11,2.11,0,0,0-.4-1.35,2.68,2.68,0,0,0-1-.78,5.15,5.15,0,0,0-1.4-.38,11.63,11.63,0,0,0-1.48-.1h-3.51v5.51Z"/></svg>